<svg id="Layer_1" data-name="Layer 1" xmlns="http://www.w3.org/2000/svg" viewBox="0 0 223.87 63.84"><defs><style>.cls-1{fill:#231f20;}.cls-2{fill:#010101;}</style></defs><path class="cls-1" d="M110.74,112.06a12.61,12.61,0,0,1-9.89,4.62,12,12,0,1,1,0-24.07,12.5,12.5,0,0,1,7.28,2.31,12.23,12.23,0,0,1,2.44,2.31l-3.29,3.29a10.09,10.09,0,0,0-1.69-1.64,7.71,7.71,0,0,0-4.74-1.65,7.42,7.42,0,1,0,0,14.83,8.27,8.27,0,0,0,4.91-1.65,7.94,7.94,0,0,0,1.68-1.64Z" transform="translate(-18.89 -92.48)"/><path class="cls-1" d="M124.74,92.61a12,12,0,1,1-12.52,12A12.2,12.2,0,0,1,124.74,92.61Zm0,19.45a7.42,7.42,0,1,0-7.42-7.41A7.38,7.38,0,0,0,124.74,112.06Z" transform="translate(-18.89 -92.48)"/><path class="cls-1" d="M138.58,93.11h5.28l6,17H150l6-17h5.28l-8.57,23.07h-5.61Z" transform="translate(-18.89 -92.48)"/><path class="cls-1" d="M164.79,93.11h4.94v23.07h-4.94Z" transform="translate(-18.89 -92.48)"/><path class="cls-1" d="M175.66,93.11h8.41c7.09,0,12.2,5.11,12.2,11.54s-5.11,11.53-12.2,11.53h-8.41Zm8.41,18.46a6.93,6.93,0,1,0,0-13.85h-3.46v13.85Z" transform="translate(-18.89 -92.48)"/><path class="cls-1" d="M199.39,104.32h11.05v4.12H199.39Z" transform="translate(-18.89 -92.48)"/><path class="cls-1" d="M216,99.37h-4V96.24a6.16,6.16,0,0,0,3.76-1.75,5.72,5.72,0,0,0,1-1.38H221v23.07H216Z" transform="translate(-18.89 -92.48)"/><path class="cls-1" d="M234.17,108.6l-.33.1a5.6,5.6,0,0,1-.83.07,8,8,0,0,1-7.74-8.08c0-4.45,3.62-8.08,8.73-8.08s8.74,3.63,8.74,8.08a9.29,9.29,0,0,1-1,4,11.52,11.52,0,0,1-1,1.61l-6.43,9.89h-5.11Zm-.17-4.28a3.63,3.63,0,1,0-3.63-3.63A3.47,3.47,0,0,0,234,104.32Z" transform="translate(-18.89 -92.48)"/><path class="cls-1" d="M95.41,137.52H88.73v-4.61h18.36v4.61h-6.67V156h-5Z" transform="translate(-18.89 -92.48)"/><path class="cls-1" d="M114.6,139.83h4.51v2.31h.16a7.41,7.41,0,0,1,1.24-1.32,5.59,5.59,0,0,1,3.6-1.32h.34v4.78l-.37-.07a8.39,8.39,0,0,0-1.14-.1c-2.17,0-3.83,1.65-3.83,4.29V156H114.6Z" transform="translate(-18.89 -92.48)"/><path class="cls-1" d="M143.14,154H143a6.83,6.83,0,0,1-1.24,1.16,5.86,5.86,0,0,1-3.6,1.15c-3,0-5-2-5-4.61s1.8-4.65,4.84-5.18l5.18-.92a2.61,2.61,0,0,0-2.84-2.14,4.33,4.33,0,0,0-2.71.92,4.81,4.81,0,0,0-1,.89L134,142.63a8.22,8.22,0,0,1,1.7-1.55,8.7,8.7,0,0,1,5-1.58c4.18,0,7,2.83,7,6.43v10h-4.5Zm0-5.27-3.68.66c-1.16.23-1.83.82-1.83,1.65,0,1,.67,1.65,2,1.65a3.45,3.45,0,0,0,3.51-3.63Z" transform="translate(-18.89 -92.48)"/><path class="cls-1" d="M173.17,153a7.19,7.19,0,0,1-1.66,1.64,8.62,8.62,0,0,1-5.18,1.65,8.41,8.41,0,1,1,0-16.81,8.62,8.62,0,0,1,5.18,1.65,7,7,0,0,1,1.66,1.65l-2.83,2.8a6,6,0,0,0-1.07-1,5.05,5.05,0,0,0-2.94-1,4.29,4.29,0,0,0,0,8.57,5.05,5.05,0,0,0,2.94-1,5.62,5.62,0,0,0,1.07-1Z" transform="translate(-18.89 -92.48)"/><path class="cls-1" d="M182.85,132.91h4.51v13.51l5.84-6.59h5.34l-6,6.76,6.34,9.39H193.7l-4.17-6.26-2.17,2.47V156h-4.51Z" transform="translate(-18.89 -92.48)"/><path class="cls-1" d="M221.9,153.67a8.05,8.05,0,0,1-1.8,1.32,10.68,10.68,0,0,1-5.21,1.32,8.41,8.41,0,1,1-.16-16.81,8.14,8.14,0,0,1,8.17,8.08,11.23,11.23,0,0,1-.1,1.41l-.06.56H210.89a4.19,4.19,0,0,0,4.34,2.81,5.8,5.8,0,0,0,3.23-.89,4.23,4.23,0,0,0,1.11-.93Zm-3.67-7.41a3.81,3.81,0,0,0-7.34,0Z" transform="translate(-18.89 -92.48)"/><path class="cls-1" d="M232.91,139.83h4.51v2.31h.17a7,7,0,0,1,1.23-1.32,5.62,5.62,0,0,1,3.61-1.32h.33v4.78l-.37-.07a8.21,8.21,0,0,0-1.13-.1c-2.17,0-3.84,1.65-3.84,4.29V156h-4.51Z" transform="translate(-18.89 -92.48)"/><path class="cls-2" d="M44.69,116.29a2,2,0,1,0,2,2A2,2,0,0,0,44.69,116.29Zm30.08-13.44L51,92.93a7.12,7.12,0,0,0-2.29-.45,7,7,0,0,0-2.29.45l-23.81,9.92a6,6,0,0,0-3.67,5.5c0,24.62,14.2,41.64,27.47,47.18a6.05,6.05,0,0,0,4.58,0c10.63-4.43,27.49-19.73,27.49-47.18A6,6,0,0,0,74.77,102.85ZM64.53,124.23H63A4,4,0,0,0,60.22,131l1.07,1.07a2,2,0,0,1-2.81,2.8l-1.06-1.06a4,4,0,0,0-6.78,2.81v1.5a2,2,0,1,1-4,0v-1.5a4,4,0,0,0-6.77-2.81l-1.07,1.06a2,2,0,0,1-2.8-2.8L37.09,131a4,4,0,0,0-2.81-6.77h-1.5a2,2,0,0,1,0-4h1.5a4,4,0,0,0,2.81-6.78L36,112.42a2,2,0,0,1,2.8-2.81l1.07,1.07a4,4,0,0,0,6.77-2.81v-1.5a2,2,0,1,1,4,0v1.5a4,4,0,0,0,6.78,2.81l1.06-1.07a2,2,0,0,1,2.81,2.81l-1.07,1.06A4,4,0,0,0,63,120.26h1.5a2,2,0,1,1,0,4Zm-11.9,0a2,2,0,1,0,2,2A2,2,0,0,0,52.63,124.23Z" transform="translate(-18.89 -92.48)"/></svg>